# xmcd CD database file
#
# Track frame offsets:
#	150
#	33868
#	52693
#	92555
#	127907
#	163102
#	197583
#	227752
#	252390
#	273263
#
# Disc length: 4004 seconds
#
# Revision: 0
# Processed by: cddbd v1.5.2PL0 Copyright (c) Steve Scherf et al.
# Submitted via: CDex 1.51
#
DISCID=760fa20a
DTITLE=Doreen's Jazz New Orleans - Volume XVIII New Orleans Best Kept Secrets
DYEAR=2011
DGENRE=Jazz
TTITLE0=Doreen's Jazz New Orleans - House Of The Rising Sun
TTITLE1=Doreen's Jazz New Orleans - Hot time In The Old Town Tonight
TTITLE2=Doreen's Jazz New Orleans - Swing Low Sweet Chariot
TTITLE3=Doreen's Jazz New Orleans - Caravan
TTITLE4=Doreen's Jazz New Orleans - Dream A Little Dream of Me
TTITLE5=Doreen's Jazz New Orleans - Hey, look Me Over
TTITLE6=Doreen's Jazz New Orleans - Summertime
TTITLE7=Doreen's Jazz New Orleans - Dinah
TTITLE8=Doreen's Jazz New Orleans - New Orleans
TTITLE9=Doreen's Jazz New Orleans - Caledonia
EXTD=YEAR: 2011
EXTT0=
EXTT1=
EXTT2=
EXTT3=
EXTT4=
EXTT5=
EXTT6=
EXTT7=
EXTT8=
EXTT9=
PLAYORDER=
